<mxfile host="Electron" agent="Mozilla/5.0 (Macintosh; Intel Mac OS X 10_15_7) AppleWebKit/537.36 (KHTML, like Gecko) draw.io/26.0.16 Chrome/132.0.6834.196 Electron/34.2.0 Safari/537.36" version="26.0.16">
  <diagram name="Page-1" id="fRCsW6_-i35A7n_Nzp9Y">
    <mxGraphModel dx="1908" dy="1244" grid="1" gridSize="10" guides="1" tooltips="1" connect="1" arrows="1" fold="1" page="1" pageScale="1" pageWidth="1390" pageHeight="980" math="0" shadow="0">
      <root>
        <mxCell id="0" />
        <mxCell id="1" parent="0" />
        <mxCell id="Eq3UJyGIVUHMAwNRiF-T-38" value="" style="edgeStyle=orthogonalEdgeStyle;rounded=0;orthogonalLoop=1;jettySize=auto;html=1;" parent="1" source="Eq3UJyGIVUHMAwNRiF-T-39" target="Eq3UJyGIVUHMAwNRiF-T-44" edge="1">
          <mxGeometry relative="1" as="geometry" />
        </mxCell>
        <mxCell id="Eq3UJyGIVUHMAwNRiF-T-39" value="Rolsa Technology" style="ellipse;whiteSpace=wrap;html=1;aspect=fixed;" parent="1" vertex="1">
          <mxGeometry x="720" y="560" width="80" height="80" as="geometry" />
        </mxCell>
        <mxCell id="Eq3UJyGIVUHMAwNRiF-T-40" style="edgeStyle=orthogonalEdgeStyle;rounded=0;orthogonalLoop=1;jettySize=auto;html=1;entryX=1;entryY=0.375;entryDx=0;entryDy=0;entryPerimeter=0;" parent="1" source="Eq3UJyGIVUHMAwNRiF-T-41" target="Eq3UJyGIVUHMAwNRiF-T-39" edge="1">
          <mxGeometry relative="1" as="geometry">
            <mxPoint x="880" y="600" as="targetPoint" />
          </mxGeometry>
        </mxCell>
        <mxCell id="Eq3UJyGIVUHMAwNRiF-T-41" value="Admin" style="whiteSpace=wrap;html=1;aspect=fixed;" parent="1" vertex="1">
          <mxGeometry x="1170" y="530" width="80" height="80" as="geometry" />
        </mxCell>
        <mxCell id="Eq3UJyGIVUHMAwNRiF-T-42" value="Products" style="whiteSpace=wrap;html=1;aspect=fixed;" parent="1" vertex="1">
          <mxGeometry x="580" y="900" width="80" height="80" as="geometry" />
        </mxCell>
        <mxCell id="Eq3UJyGIVUHMAwNRiF-T-43" value="Payment Gateway" style="whiteSpace=wrap;html=1;aspect=fixed;" parent="1" vertex="1">
          <mxGeometry x="1160" y="935" width="80" height="80" as="geometry" />
        </mxCell>
        <mxCell id="Eq3UJyGIVUHMAwNRiF-T-44" value="Customer" style="whiteSpace=wrap;html=1;aspect=fixed;" parent="1" vertex="1">
          <mxGeometry x="170" y="560" width="80" height="80" as="geometry" />
        </mxCell>
        <mxCell id="Eq3UJyGIVUHMAwNRiF-T-45" value="" style="edgeStyle=orthogonalEdgeStyle;rounded=0;orthogonalLoop=1;jettySize=auto;html=1;exitX=1;exitY=0.25;exitDx=0;exitDy=0;entryX=0;entryY=0;entryDx=0;entryDy=0;" parent="1" source="Eq3UJyGIVUHMAwNRiF-T-44" target="Eq3UJyGIVUHMAwNRiF-T-39" edge="1">
          <mxGeometry relative="1" as="geometry">
            <mxPoint x="585" y="560" as="sourcePoint" />
            <mxPoint x="696.7157287525379" y="571.7157287525379" as="targetPoint" />
          </mxGeometry>
        </mxCell>
        <mxCell id="Eq3UJyGIVUHMAwNRiF-T-46" value="&lt;ul style=&quot;margin-top: 4px; margin-bottom: 0px; padding-left: calc(var(--ds-md-zoom)*24px); color: rgb(64, 64, 64); font-family: Inter, system-ui, -apple-system, &amp;quot;system-ui&amp;quot;, &amp;quot;Segoe UI&amp;quot;, Roboto, &amp;quot;Noto Sans&amp;quot;, Ubuntu, Cantarell, &amp;quot;Helvetica Neue&amp;quot;, Oxygen, &amp;quot;Open Sans&amp;quot;, sans-serif; font-style: normal; font-variant-ligatures: normal; font-variant-caps: normal; font-weight: 400; letter-spacing: normal; orphans: 2; text-align: left; text-indent: 0px; text-transform: none; widows: 2; word-spacing: 0px; -webkit-text-stroke-width: 0px; white-space: normal; text-decoration-thickness: initial; text-decoration-style: initial; text-decoration-color: initial;&quot;&gt;&lt;li&gt;&lt;p style=&quot;margin-top: 0px; margin-right: 0px; margin-left: 0px; line-height: var(--ds-md-line-height); margin-bottom: 0px !important;&quot;&gt;User account management requests (e.g., account creation, updates, deletion).&lt;/p&gt;&lt;/li&gt;&lt;li style=&quot;margin-top: 4px;&quot;&gt;&lt;p style=&quot;margin-top: 0px; margin-right: 0px; margin-left: 0px; line-height: var(--ds-md-line-height); margin-bottom: 0px !important;&quot;&gt;Content management requests (e.g., adding, updating, or removing product information).&lt;/p&gt;&lt;/li&gt;&lt;li style=&quot;margin-top: 4px;&quot;&gt;&lt;p style=&quot;margin-top: 0px; margin-right: 0px; margin-left: 0px; line-height: var(--ds-md-line-height); margin-bottom: 0px !important;&quot;&gt;System configuration updates (e.g., enabling/disabling features, setting up new services).&lt;/p&gt;&lt;/li&gt;&lt;/ul&gt;" style="text;whiteSpace=wrap;html=1;fontSize=9;" parent="1" vertex="1">
          <mxGeometry x="980" y="440" width="180" height="120" as="geometry" />
        </mxCell>
        <mxCell id="Eq3UJyGIVUHMAwNRiF-T-47" value="&lt;ul style=&quot;margin-top: 4px; margin-bottom: 0px; padding-left: calc(var(--ds-md-zoom)*24px); color: rgb(64, 64, 64); font-family: Inter, system-ui, -apple-system, &amp;quot;system-ui&amp;quot;, &amp;quot;Segoe UI&amp;quot;, Roboto, &amp;quot;Noto Sans&amp;quot;, Ubuntu, Cantarell, &amp;quot;Helvetica Neue&amp;quot;, Oxygen, &amp;quot;Open Sans&amp;quot;, sans-serif; font-style: normal; font-variant-ligatures: normal; font-variant-caps: normal; font-weight: 400; letter-spacing: normal; orphans: 2; text-align: left; text-indent: 0px; text-transform: none; widows: 2; word-spacing: 0px; -webkit-text-stroke-width: 0px; white-space: normal; text-decoration-thickness: initial; text-decoration-style: initial; text-decoration-color: initial;&quot;&gt;&lt;li&gt;&lt;ul style=&quot;margin-top: 4px; margin-right: ; margin-bottom: 0px; margin-left: ; padding-left: calc(var(--ds-md-zoom)*24px);&quot;&gt;&lt;li&gt;&lt;p style=&quot;margin-top: 0px; margin-right: 0px; margin-left: 0px; line-height: var(--ds-md-line-height); margin-bottom: 0px !important;&quot;&gt;Registration data (e.g., name, email, password, address, city, state, zip).&lt;/p&gt;&lt;/li&gt;&lt;li style=&quot;margin-top: 4px;&quot;&gt;&lt;p style=&quot;margin-top: 0px; margin-right: 0px; margin-left: 0px; line-height: var(--ds-md-line-height); margin-bottom: 0px !important;&quot;&gt;Appointment requests (e.g., service type, preferred date and time, location).&lt;/p&gt;&lt;/li&gt;&lt;li style=&quot;margin-top: 4px;&quot;&gt;&lt;p style=&quot;margin-top: 0px; margin-right: 0px; margin-left: 0px; line-height: var(--ds-md-line-height); margin-bottom: 0px !important;&quot;&gt;Carbon footprint data (e.g., electricity usage, gas usage, vehicle usage, flights, diet).&lt;/p&gt;&lt;/li&gt;&lt;li style=&quot;margin-top: 4px;&quot;&gt;&lt;p style=&quot;margin-top: 0px; margin-right: 0px; margin-left: 0px; line-height: var(--ds-md-line-height); margin-bottom: 0px !important;&quot;&gt;Feedback and queries (e.g., product reviews, questions about services).&lt;/p&gt;&lt;/li&gt;&lt;/ul&gt;&lt;/li&gt;&lt;li style=&quot;margin-top: 4px;&quot;&gt;&lt;/li&gt;&lt;/ul&gt;&lt;br class=&quot;Apple-interchange-newline&quot;&gt;" style="text;whiteSpace=wrap;html=1;fontSize=9;" parent="1" vertex="1">
          <mxGeometry x="267" y="460" width="196" height="140" as="geometry" />
        </mxCell>
        <mxCell id="Eq3UJyGIVUHMAwNRiF-T-48" value="&lt;ul style=&quot;margin-top: 4px; margin-bottom: 0px; padding-left: calc(var(--ds-md-zoom)*24px); color: rgb(64, 64, 64); font-family: Inter, system-ui, -apple-system, &amp;quot;system-ui&amp;quot;, &amp;quot;Segoe UI&amp;quot;, Roboto, &amp;quot;Noto Sans&amp;quot;, Ubuntu, Cantarell, &amp;quot;Helvetica Neue&amp;quot;, Oxygen, &amp;quot;Open Sans&amp;quot;, sans-serif; font-style: normal; font-variant-ligatures: normal; font-variant-caps: normal; font-weight: 400; letter-spacing: normal; orphans: 2; text-align: left; text-indent: 0px; text-transform: none; widows: 2; word-spacing: 0px; -webkit-text-stroke-width: 0px; white-space: normal; text-decoration-thickness: initial; text-decoration-style: initial; text-decoration-color: initial;&quot;&gt;&lt;li&gt;&lt;p style=&quot;margin-top: 0px; margin-right: 0px; margin-left: 0px; line-height: var(--ds-md-line-height); margin-bottom: 0px !important;&quot;&gt;Confirmation of appointments (e.g., scheduled date and time, service details).&lt;/p&gt;&lt;/li&gt;&lt;li style=&quot;margin-top: 4px;&quot;&gt;&lt;p style=&quot;margin-top: 0px; margin-right: 0px; margin-left: 0px; line-height: var(--ds-md-line-height); margin-bottom: 0px !important;&quot;&gt;Personalized recommendations for reducing carbon footprint.&lt;/p&gt;&lt;/li&gt;&lt;li style=&quot;margin-top: 4px;&quot;&gt;&lt;p style=&quot;margin-top: 0px; margin-right: 0px; margin-left: 0px; line-height: var(--ds-md-line-height); margin-bottom: 0px !important;&quot;&gt;Product information (e.g., solar panels, EV chargers, smart home systems).&lt;/p&gt;&lt;/li&gt;&lt;li style=&quot;margin-top: 4px;&quot;&gt;&lt;p style=&quot;margin-top: 0px; margin-right: 0px; margin-left: 0px; line-height: var(--ds-md-line-height); margin-bottom: 0px !important;&quot;&gt;Updates on appointment status (e.g., completed, cancelled).&lt;/p&gt;&lt;/li&gt;&lt;li style=&quot;margin-top: 4px;&quot;&gt;&lt;p style=&quot;margin-top: 0px; margin-right: 0px; margin-left: 0px; line-height: var(--ds-md-line-height); margin-bottom: 0px !important;&quot;&gt;Payment receipts and subscription confirmations.&lt;/p&gt;&lt;/li&gt;&lt;/ul&gt;" style="text;whiteSpace=wrap;html=1;fontSize=9;" parent="1" vertex="1">
          <mxGeometry x="300" y="600" width="210" height="140" as="geometry" />
        </mxCell>
        <mxCell id="Eq3UJyGIVUHMAwNRiF-T-49" style="edgeStyle=orthogonalEdgeStyle;rounded=0;orthogonalLoop=1;jettySize=auto;html=1;entryX=0.05;entryY=0.875;entryDx=0;entryDy=0;entryPerimeter=0;" parent="1" source="Eq3UJyGIVUHMAwNRiF-T-39" target="Eq3UJyGIVUHMAwNRiF-T-41" edge="1">
          <mxGeometry relative="1" as="geometry" />
        </mxCell>
        <mxCell id="Eq3UJyGIVUHMAwNRiF-T-50" value="&lt;ul style=&quot;margin-top: 4px; margin-bottom: 0px; padding-left: calc(var(--ds-md-zoom)*24px); color: rgb(64, 64, 64); font-family: Inter, system-ui, -apple-system, &amp;quot;system-ui&amp;quot;, &amp;quot;Segoe UI&amp;quot;, Roboto, &amp;quot;Noto Sans&amp;quot;, Ubuntu, Cantarell, &amp;quot;Helvetica Neue&amp;quot;, Oxygen, &amp;quot;Open Sans&amp;quot;, sans-serif; font-style: normal; font-variant-ligatures: normal; font-variant-caps: normal; font-weight: 400; letter-spacing: normal; orphans: 2; text-align: left; text-indent: 0px; text-transform: none; widows: 2; word-spacing: 0px; -webkit-text-stroke-width: 0px; white-space: normal; text-decoration-thickness: initial; text-decoration-style: initial; text-decoration-color: initial;&quot;&gt;&lt;li&gt;&lt;p style=&quot;margin-top: 0px; margin-right: 0px; margin-left: 0px; line-height: var(--ds-md-line-height); margin-bottom: 0px !important;&quot;&gt;Reports on system usage (e.g., number of active users, appointments scheduled).&lt;/p&gt;&lt;/li&gt;&lt;li style=&quot;margin-top: 4px;&quot;&gt;&lt;p style=&quot;margin-top: 0px; margin-right: 0px; margin-left: 0px; line-height: var(--ds-md-line-height); margin-bottom: 0px !important;&quot;&gt;Analytics on user activity (e.g., most popular products, carbon footprint trends).&lt;/p&gt;&lt;/li&gt;&lt;li style=&quot;margin-top: 4px;&quot;&gt;&lt;p style=&quot;margin-top: 0px; margin-right: 0px; margin-left: 0px; line-height: var(--ds-md-line-height); margin-bottom: 0px !important;&quot;&gt;Notifications for system issues or maintenance updates.&lt;/p&gt;&lt;/li&gt;&lt;/ul&gt;" style="text;whiteSpace=wrap;html=1;fontSize=9;" parent="1" vertex="1">
          <mxGeometry x="1010" y="600" width="150" height="110" as="geometry" />
        </mxCell>
        <mxCell id="Eq3UJyGIVUHMAwNRiF-T-51" style="edgeStyle=orthogonalEdgeStyle;rounded=0;orthogonalLoop=1;jettySize=auto;html=1;entryX=0;entryY=1;entryDx=0;entryDy=0;" parent="1" source="Eq3UJyGIVUHMAwNRiF-T-42" target="Eq3UJyGIVUHMAwNRiF-T-39" edge="1">
          <mxGeometry relative="1" as="geometry">
            <mxPoint x="720" y="619" as="targetPoint" />
          </mxGeometry>
        </mxCell>
        <mxCell id="Eq3UJyGIVUHMAwNRiF-T-52" value="&lt;ul style=&quot;margin-top: 4px; margin-bottom: 0px; padding-left: calc(var(--ds-md-zoom)*24px); color: rgb(64, 64, 64); font-family: Inter, system-ui, -apple-system, &amp;quot;system-ui&amp;quot;, &amp;quot;Segoe UI&amp;quot;, Roboto, &amp;quot;Noto Sans&amp;quot;, Ubuntu, Cantarell, &amp;quot;Helvetica Neue&amp;quot;, Oxygen, &amp;quot;Open Sans&amp;quot;, sans-serif; font-style: normal; font-variant-ligatures: normal; font-variant-caps: normal; font-weight: 400; letter-spacing: normal; orphans: 2; text-align: left; text-indent: 0px; text-transform: none; widows: 2; word-spacing: 0px; -webkit-text-stroke-width: 0px; white-space: normal; text-decoration-thickness: initial; text-decoration-style: initial; text-decoration-color: initial;&quot;&gt;&lt;li&gt;&lt;p style=&quot;margin-top: 0px; margin-right: 0px; margin-left: 0px; line-height: var(--ds-md-line-height); margin-bottom: 0px !important;&quot;&gt;Product details (e.g., name, category, description, features, price).&lt;/p&gt;&lt;/li&gt;&lt;li style=&quot;margin-top: 4px;&quot;&gt;&lt;p style=&quot;margin-top: 0px; margin-right: 0px; margin-left: 0px; line-height: var(--ds-md-line-height); margin-bottom: 0px !important;&quot;&gt;Inventory updates (e.g., stock quantity, new arrivals).&lt;/p&gt;&lt;/li&gt;&lt;li style=&quot;margin-top: 4px;&quot;&gt;&lt;p style=&quot;margin-top: 0px; margin-right: 0px; margin-left: 0px; line-height: var(--ds-md-line-height); margin-bottom: 0px !important;&quot;&gt;Promotional offers (e.g., discounts, bundles).&lt;/p&gt;&lt;/li&gt;&lt;/ul&gt;" style="text;whiteSpace=wrap;html=1;fontSize=9;" parent="1" vertex="1">
          <mxGeometry x="620" y="740" width="120" height="120" as="geometry" />
        </mxCell>
        <mxCell id="Eq3UJyGIVUHMAwNRiF-T-53" value="&lt;ul style=&quot;margin-top: 4px; margin-bottom: 0px; padding-left: calc(var(--ds-md-zoom)*24px); color: rgb(64, 64, 64); font-family: Inter, system-ui, -apple-system, &amp;quot;system-ui&amp;quot;, &amp;quot;Segoe UI&amp;quot;, Roboto, &amp;quot;Noto Sans&amp;quot;, Ubuntu, Cantarell, &amp;quot;Helvetica Neue&amp;quot;, Oxygen, &amp;quot;Open Sans&amp;quot;, sans-serif; font-style: normal; font-variant-ligatures: normal; font-variant-caps: normal; font-weight: 400; letter-spacing: normal; orphans: 2; text-align: left; text-indent: 0px; text-transform: none; widows: 2; word-spacing: 0px; -webkit-text-stroke-width: 0px; white-space: normal; text-decoration-thickness: initial; text-decoration-style: initial; text-decoration-color: initial;&quot;&gt;&lt;li&gt;&lt;p style=&quot;margin-top: 0px; margin-right: 0px; margin-left: 0px; line-height: var(--ds-md-line-height); margin-bottom: 0px !important;&quot;&gt;Analytics on product performance (e.g., most popular products, customer reviews).&lt;/p&gt;&lt;/li&gt;&lt;li style=&quot;margin-top: 4px;&quot;&gt;&lt;p style=&quot;margin-top: 0px; margin-right: 0px; margin-left: 0px; line-height: var(--ds-md-line-height); margin-bottom: 0px !important;&quot;&gt;Updates on product availability or discontinuation.&lt;/p&gt;&lt;/li&gt;&lt;li style=&quot;margin-top: 4px;&quot;&gt;&lt;p style=&quot;margin-top: 0px; margin-right: 0px; margin-left: 0px; line-height: var(--ds-md-line-height); margin-bottom: 0px !important;&quot;&gt;Notifications for low stock or restocking needs.&lt;/p&gt;&lt;/li&gt;&lt;/ul&gt;" style="text;whiteSpace=wrap;html=1;fontSize=9;" parent="1" vertex="1">
          <mxGeometry x="690" y="960" width="180" height="100" as="geometry" />
        </mxCell>
        <mxCell id="Eq3UJyGIVUHMAwNRiF-T-54" value="" style="endArrow=none;html=1;rounded=0;entryX=0.292;entryY=0.971;entryDx=0;entryDy=0;entryPerimeter=0;" parent="1" edge="1">
          <mxGeometry width="50" height="50" relative="1" as="geometry">
            <mxPoint x="753" y="960" as="sourcePoint" />
            <mxPoint x="753.3600000000001" y="637.6800000000001" as="targetPoint" />
          </mxGeometry>
        </mxCell>
        <mxCell id="Eq3UJyGIVUHMAwNRiF-T-55" value="" style="endArrow=classic;html=1;rounded=0;entryX=1;entryY=0.75;entryDx=0;entryDy=0;exitX=0.348;exitY=-0.023;exitDx=0;exitDy=0;exitPerimeter=0;" parent="1" source="Eq3UJyGIVUHMAwNRiF-T-53" target="Eq3UJyGIVUHMAwNRiF-T-42" edge="1">
          <mxGeometry width="50" height="50" relative="1" as="geometry">
            <mxPoint x="730" y="960" as="sourcePoint" />
            <mxPoint x="780" y="910" as="targetPoint" />
          </mxGeometry>
        </mxCell>
        <mxCell id="Eq3UJyGIVUHMAwNRiF-T-56" value="" style="endArrow=classic;html=1;rounded=0;entryX=0;entryY=0.125;entryDx=0;entryDy=0;entryPerimeter=0;" parent="1" target="Eq3UJyGIVUHMAwNRiF-T-43" edge="1">
          <mxGeometry width="50" height="50" relative="1" as="geometry">
            <mxPoint x="790" y="630" as="sourcePoint" />
            <mxPoint x="840" y="580" as="targetPoint" />
          </mxGeometry>
        </mxCell>
        <mxCell id="Eq3UJyGIVUHMAwNRiF-T-57" value="&lt;ul style=&quot;margin-top: 4px; margin-bottom: 0px; padding-left: calc(var(--ds-md-zoom)*24px); color: rgb(64, 64, 64); font-family: Inter, system-ui, -apple-system, &amp;quot;system-ui&amp;quot;, &amp;quot;Segoe UI&amp;quot;, Roboto, &amp;quot;Noto Sans&amp;quot;, Ubuntu, Cantarell, &amp;quot;Helvetica Neue&amp;quot;, Oxygen, &amp;quot;Open Sans&amp;quot;, sans-serif; font-style: normal; font-variant-ligatures: normal; font-variant-caps: normal; font-weight: 400; letter-spacing: normal; orphans: 2; text-align: left; text-indent: 0px; text-transform: none; widows: 2; word-spacing: 0px; -webkit-text-stroke-width: 0px; white-space: normal; text-decoration-thickness: initial; text-decoration-style: initial; text-decoration-color: initial;&quot;&gt;&lt;li&gt;&lt;p style=&quot;margin-top: 0px; margin-right: 0px; margin-left: 0px; line-height: var(--ds-md-line-height); margin-bottom: 0px !important;&quot;&gt;Payment details (e.g., user_id, payment_amount, payment_method, transaction_id).&lt;/p&gt;&lt;/li&gt;&lt;li style=&quot;margin-top: 4px;&quot;&gt;&lt;p style=&quot;margin-top: 0px; margin-right: 0px; margin-left: 0px; line-height: var(--ds-md-line-height); margin-bottom: 0px !important;&quot;&gt;Subscription information (e.g., plan type, renewal date).&lt;/p&gt;&lt;/li&gt;&lt;/ul&gt;" style="text;whiteSpace=wrap;html=1;fontSize=9;" parent="1" vertex="1">
          <mxGeometry x="1050" y="790" width="240" height="60" as="geometry" />
        </mxCell>
        <mxCell id="Eq3UJyGIVUHMAwNRiF-T-58" value="&lt;li style=&quot;color: rgb(64, 64, 64); font-family: Inter, system-ui, -apple-system, &amp;quot;system-ui&amp;quot;, &amp;quot;Segoe UI&amp;quot;, Roboto, &amp;quot;Noto Sans&amp;quot;, Ubuntu, Cantarell, &amp;quot;Helvetica Neue&amp;quot;, Oxygen, &amp;quot;Open Sans&amp;quot;, sans-serif; font-style: normal; font-variant-ligatures: normal; font-variant-caps: normal; font-weight: 400; letter-spacing: normal; orphans: 2; text-indent: 0px; text-transform: none; widows: 2; word-spacing: 0px; -webkit-text-stroke-width: 0px; white-space: normal; text-decoration-thickness: initial; text-decoration-style: initial; text-decoration-color: initial;&quot;&gt;&lt;p style=&quot;margin-top: 0px; margin-right: 0px; margin-left: 0px; line-height: var(--ds-md-line-height); margin-bottom: 0px !important;&quot;&gt;Payment confirmations and receipts.&lt;/p&gt;&lt;/li&gt;&lt;li style=&quot;margin-top: 4px; color: rgb(64, 64, 64); font-family: Inter, system-ui, -apple-system, &amp;quot;system-ui&amp;quot;, &amp;quot;Segoe UI&amp;quot;, Roboto, &amp;quot;Noto Sans&amp;quot;, Ubuntu, Cantarell, &amp;quot;Helvetica Neue&amp;quot;, Oxygen, &amp;quot;Open Sans&amp;quot;, sans-serif; font-style: normal; font-variant-ligatures: normal; font-variant-caps: normal; font-weight: 400; letter-spacing: normal; orphans: 2; text-indent: 0px; text-transform: none; widows: 2; word-spacing: 0px; -webkit-text-stroke-width: 0px; white-space: normal; text-decoration-thickness: initial; text-decoration-style: initial; text-decoration-color: initial;&quot;&gt;&lt;p style=&quot;margin-top: 0px; margin-right: 0px; margin-left: 0px; line-height: var(--ds-md-line-height); margin-bottom: 0px !important;&quot;&gt;Notifications for failed or pending payments.&lt;/p&gt;&lt;/li&gt;&lt;li style=&quot;margin-top: 4px; color: rgb(64, 64, 64); font-family: Inter, system-ui, -apple-system, &amp;quot;system-ui&amp;quot;, &amp;quot;Segoe UI&amp;quot;, Roboto, &amp;quot;Noto Sans&amp;quot;, Ubuntu, Cantarell, &amp;quot;Helvetica Neue&amp;quot;, Oxygen, &amp;quot;Open Sans&amp;quot;, sans-serif; font-style: normal; font-variant-ligatures: normal; font-variant-caps: normal; font-weight: 400; letter-spacing: normal; orphans: 2; text-indent: 0px; text-transform: none; widows: 2; word-spacing: 0px; -webkit-text-stroke-width: 0px; white-space: normal; text-decoration-thickness: initial; text-decoration-style: initial; text-decoration-color: initial;&quot;&gt;&lt;p style=&quot;margin-top: 0px; margin-right: 0px; margin-left: 0px; line-height: var(--ds-md-line-height); margin-bottom: 0px !important;&quot;&gt;Updates on subscription status (e.g., active, cancelled).&lt;/p&gt;&lt;/li&gt;&lt;br class=&quot;Apple-interchange-newline&quot;&gt;" style="text;whiteSpace=wrap;html=1;fontSize=9;" parent="1" vertex="1">
          <mxGeometry x="1000" y="913.75" width="120" height="122.5" as="geometry" />
        </mxCell>
        <mxCell id="Eq3UJyGIVUHMAwNRiF-T-59" value="Social media platform" style="whiteSpace=wrap;html=1;aspect=fixed;" parent="1" vertex="1">
          <mxGeometry x="670" y="220" width="80" height="80" as="geometry" />
        </mxCell>
        <mxCell id="Eq3UJyGIVUHMAwNRiF-T-60" value="" style="endArrow=classic;html=1;rounded=0;entryX=0.1;entryY=0.988;entryDx=0;entryDy=0;entryPerimeter=0;" parent="1" target="Eq3UJyGIVUHMAwNRiF-T-59" edge="1">
          <mxGeometry width="50" height="50" relative="1" as="geometry">
            <mxPoint x="750" y="560" as="sourcePoint" />
            <mxPoint x="800" y="510" as="targetPoint" />
          </mxGeometry>
        </mxCell>
        <mxCell id="Eq3UJyGIVUHMAwNRiF-T-61" value="&lt;li style=&quot;color: rgb(64, 64, 64); font-family: Inter, system-ui, -apple-system, &amp;quot;system-ui&amp;quot;, &amp;quot;Segoe UI&amp;quot;, Roboto, &amp;quot;Noto Sans&amp;quot;, Ubuntu, Cantarell, &amp;quot;Helvetica Neue&amp;quot;, Oxygen, &amp;quot;Open Sans&amp;quot;, sans-serif; font-style: normal; font-variant-ligatures: normal; font-variant-caps: normal; font-weight: 400; letter-spacing: normal; orphans: 2; text-indent: 0px; text-transform: none; widows: 2; word-spacing: 0px; -webkit-text-stroke-width: 0px; white-space: normal; text-decoration-thickness: initial; text-decoration-style: initial; text-decoration-color: initial;&quot;&gt;&lt;p style=&quot;margin-top: 0px; margin-right: 0px; margin-left: 0px; line-height: var(--ds-md-line-height); margin-bottom: 0px !important;&quot;&gt;Data to share (e.g., carbon footprint achievements, product promotions, success stories).&lt;/p&gt;&lt;/li&gt;&lt;li style=&quot;margin-top: 4px; color: rgb(64, 64, 64); font-family: Inter, system-ui, -apple-system, &amp;quot;system-ui&amp;quot;, &amp;quot;Segoe UI&amp;quot;, Roboto, &amp;quot;Noto Sans&amp;quot;, Ubuntu, Cantarell, &amp;quot;Helvetica Neue&amp;quot;, Oxygen, &amp;quot;Open Sans&amp;quot;, sans-serif; font-style: normal; font-variant-ligatures: normal; font-variant-caps: normal; font-weight: 400; letter-spacing: normal; orphans: 2; text-indent: 0px; text-transform: none; widows: 2; word-spacing: 0px; -webkit-text-stroke-width: 0px; white-space: normal; text-decoration-thickness: initial; text-decoration-style: initial; text-decoration-color: initial;&quot;&gt;&lt;p style=&quot;margin-top: 0px; margin-right: 0px; margin-left: 0px; line-height: var(--ds-md-line-height); margin-bottom: 0px !important;&quot;&gt;Notifications for new posts or interactions.&lt;/p&gt;&lt;/li&gt;&lt;li style=&quot;margin-top: 4px; color: rgb(64, 64, 64); font-family: Inter, system-ui, -apple-system, &amp;quot;system-ui&amp;quot;, &amp;quot;Segoe UI&amp;quot;, Roboto, &amp;quot;Noto Sans&amp;quot;, Ubuntu, Cantarell, &amp;quot;Helvetica Neue&amp;quot;, Oxygen, &amp;quot;Open Sans&amp;quot;, sans-serif; font-style: normal; font-variant-ligatures: normal; font-variant-caps: normal; font-weight: 400; letter-spacing: normal; orphans: 2; text-indent: 0px; text-transform: none; widows: 2; word-spacing: 0px; -webkit-text-stroke-width: 0px; white-space: normal; text-decoration-thickness: initial; text-decoration-style: initial; text-decoration-color: initial;&quot;&gt;&lt;p style=&quot;margin-top: 0px; margin-right: 0px; margin-left: 0px; line-height: var(--ds-md-line-height); margin-bottom: 0px !important;&quot;&gt;Updates on social media campaigns (e.g., performance metrics, reach).&lt;/p&gt;&lt;/li&gt;&lt;br class=&quot;Apple-interchange-newline&quot;&gt;" style="text;whiteSpace=wrap;html=1;fontSize=9;" parent="1" vertex="1">
          <mxGeometry x="530" y="380" width="190" height="50" as="geometry" />
        </mxCell>
        <mxCell id="Eq3UJyGIVUHMAwNRiF-T-62" value="&lt;ul style=&quot;margin-top: 4px; margin-bottom: 0px; padding-left: calc(var(--ds-md-zoom)*24px); color: rgb(64, 64, 64); font-family: Inter, system-ui, -apple-system, &amp;quot;system-ui&amp;quot;, &amp;quot;Segoe UI&amp;quot;, Roboto, &amp;quot;Noto Sans&amp;quot;, Ubuntu, Cantarell, &amp;quot;Helvetica Neue&amp;quot;, Oxygen, &amp;quot;Open Sans&amp;quot;, sans-serif; font-style: normal; font-variant-ligatures: normal; font-variant-caps: normal; font-weight: 400; letter-spacing: normal; orphans: 2; text-align: left; text-indent: 0px; text-transform: none; widows: 2; word-spacing: 0px; -webkit-text-stroke-width: 0px; white-space: normal; text-decoration-thickness: initial; text-decoration-style: initial; text-decoration-color: initial;&quot;&gt;&lt;li&gt;&lt;p style=&quot;margin-top: 0px; margin-right: 0px; margin-left: 0px; line-height: var(--ds-md-line-height); margin-bottom: 0px !important;&quot;&gt;Social media posts and interactions (e.g., user progress, feedback, reviews).&lt;/p&gt;&lt;/li&gt;&lt;li style=&quot;margin-top: 4px;&quot;&gt;&lt;p style=&quot;margin-top: 0px; margin-right: 0px; margin-left: 0px; line-height: var(--ds-md-line-height); margin-bottom: 0px !important;&quot;&gt;Analytics on social media engagement (e.g., likes, shares, comments).&lt;/p&gt;&lt;/li&gt;&lt;/ul&gt;" style="text;whiteSpace=wrap;html=1;fontSize=9;" parent="1" vertex="1">
          <mxGeometry x="730" y="310" width="120" height="100" as="geometry" />
        </mxCell>
        <mxCell id="Eq3UJyGIVUHMAwNRiF-T-63" value="" style="endArrow=classic;html=1;rounded=0;entryX=0.65;entryY=0.013;entryDx=0;entryDy=0;entryPerimeter=0;exitX=0.413;exitY=1.025;exitDx=0;exitDy=0;exitPerimeter=0;" parent="1" source="Eq3UJyGIVUHMAwNRiF-T-59" target="Eq3UJyGIVUHMAwNRiF-T-39" edge="1">
          <mxGeometry width="50" height="50" relative="1" as="geometry">
            <mxPoint x="730" y="310" as="sourcePoint" />
            <mxPoint x="820" y="250" as="targetPoint" />
          </mxGeometry>
        </mxCell>
        <mxCell id="Eq3UJyGIVUHMAwNRiF-T-64" value="" style="endArrow=classic;html=1;rounded=0;entryX=0.646;entryY=0.942;entryDx=0;entryDy=0;entryPerimeter=0;exitX=0;exitY=0.5;exitDx=0;exitDy=0;" parent="1" source="Eq3UJyGIVUHMAwNRiF-T-43" target="Eq3UJyGIVUHMAwNRiF-T-39" edge="1">
          <mxGeometry width="50" height="50" relative="1" as="geometry">
            <mxPoint x="850" y="710" as="sourcePoint" />
            <mxPoint x="780" y="640" as="targetPoint" />
          </mxGeometry>
        </mxCell>
        <mxCell id="Eq3UJyGIVUHMAwNRiF-T-65" value="Carbon Footprint Calculator" style="whiteSpace=wrap;html=1;aspect=fixed;" parent="1" vertex="1">
          <mxGeometry x="1045" y="130" width="80" height="80" as="geometry" />
        </mxCell>
        <mxCell id="Eq3UJyGIVUHMAwNRiF-T-66" value="" style="endArrow=classic;html=1;rounded=0;entryX=0;entryY=0.25;entryDx=0;entryDy=0;" parent="1" target="Eq3UJyGIVUHMAwNRiF-T-65" edge="1">
          <mxGeometry width="50" height="50" relative="1" as="geometry">
            <mxPoint x="782" y="571" as="sourcePoint" />
            <mxPoint x="710" y="310" as="targetPoint" />
          </mxGeometry>
        </mxCell>
        <mxCell id="Eq3UJyGIVUHMAwNRiF-T-67" value="" style="endArrow=classic;html=1;rounded=0;exitX=0.5;exitY=1;exitDx=0;exitDy=0;" parent="1" source="Eq3UJyGIVUHMAwNRiF-T-65" edge="1">
          <mxGeometry width="50" height="50" relative="1" as="geometry">
            <mxPoint x="792" y="581" as="sourcePoint" />
            <mxPoint x="800" y="580" as="targetPoint" />
          </mxGeometry>
        </mxCell>
        <mxCell id="Eq3UJyGIVUHMAwNRiF-T-68" value="&lt;ul style=&quot;margin-top: 4px; margin-bottom: 0px; padding-left: calc(var(--ds-md-zoom)*24px); color: rgb(64, 64, 64); font-family: Inter, system-ui, -apple-system, &amp;quot;system-ui&amp;quot;, &amp;quot;Segoe UI&amp;quot;, Roboto, &amp;quot;Noto Sans&amp;quot;, Ubuntu, Cantarell, &amp;quot;Helvetica Neue&amp;quot;, Oxygen, &amp;quot;Open Sans&amp;quot;, sans-serif; font-style: normal; font-variant-ligatures: normal; font-variant-caps: normal; font-weight: 400; letter-spacing: normal; orphans: 2; text-align: left; text-indent: 0px; text-transform: none; widows: 2; word-spacing: 0px; -webkit-text-stroke-width: 0px; white-space: normal; text-decoration-thickness: initial; text-decoration-style: initial; text-decoration-color: initial;&quot;&gt;&lt;li&gt;&lt;p style=&quot;margin-top: 0px; margin-right: 0px; margin-left: 0px; line-height: var(--ds-md-line-height); margin-bottom: 0px !important;&quot;&gt;Carbon footprint data (e.g., total_footprint, electricity usage, gas usage, vehicle usage, flights, diet).&lt;/p&gt;&lt;/li&gt;&lt;li style=&quot;margin-top: 4px;&quot;&gt;&lt;p style=&quot;margin-top: 0px; margin-right: 0px; margin-left: 0px; line-height: var(--ds-md-line-height); margin-bottom: 0px !important;&quot;&gt;User preferences for carbon reduction (e.g., focus on electricity, transportation, diet).&lt;/p&gt;&lt;/li&gt;&lt;/ul&gt;" style="text;whiteSpace=wrap;html=1;fontSize=9;" parent="1" vertex="1">
          <mxGeometry x="1070" y="230" width="160" height="110" as="geometry" />
        </mxCell>
        <mxCell id="Eq3UJyGIVUHMAwNRiF-T-69" value="&lt;ul style=&quot;margin-top: 4px; margin-bottom: 0px; padding-left: calc(var(--ds-md-zoom)*24px); color: rgb(64, 64, 64); font-family: Inter, system-ui, -apple-system, &amp;quot;system-ui&amp;quot;, &amp;quot;Segoe UI&amp;quot;, Roboto, &amp;quot;Noto Sans&amp;quot;, Ubuntu, Cantarell, &amp;quot;Helvetica Neue&amp;quot;, Oxygen, &amp;quot;Open Sans&amp;quot;, sans-serif; font-style: normal; font-variant-ligatures: normal; font-variant-caps: normal; font-weight: 400; letter-spacing: normal; orphans: 2; text-align: left; text-indent: 0px; text-transform: none; widows: 2; word-spacing: 0px; -webkit-text-stroke-width: 0px; white-space: normal; text-decoration-thickness: initial; text-decoration-style: initial; text-decoration-color: initial;&quot;&gt;&lt;li&gt;&lt;p style=&quot;margin-top: 0px; margin-right: 0px; margin-left: 0px; line-height: var(--ds-md-line-height); margin-bottom: 0px !important;&quot;&gt;Carbon footprint analysis (e.g., breakdown of emissions by category).&lt;/p&gt;&lt;/li&gt;&lt;li style=&quot;margin-top: 4px;&quot;&gt;&lt;p style=&quot;margin-top: 0px; margin-right: 0px; margin-left: 0px; line-height: var(--ds-md-line-height); margin-bottom: 0px !important;&quot;&gt;Personalized recommendations for reducing carbon footprint (e.g., switch to solar, use public transport).&lt;/p&gt;&lt;/li&gt;&lt;li style=&quot;margin-top: 4px;&quot;&gt;&lt;p style=&quot;margin-top: 0px; margin-right: 0px; margin-left: 0px; line-height: var(--ds-md-line-height); margin-bottom: 0px !important;&quot;&gt;Progress tracking and analytics (e.g., reduction over time, comparison to goals).&lt;/p&gt;&lt;/li&gt;&lt;/ul&gt;" style="text;whiteSpace=wrap;html=1;fontSize=9;" parent="1" vertex="1">
          <mxGeometry x="810" y="110" width="210" height="130" as="geometry" />
        </mxCell>
        <mxCell id="Eq3UJyGIVUHMAwNRiF-T-70" value="" style="endArrow=classic;html=1;rounded=0;exitX=1;exitY=0;exitDx=0;exitDy=0;" parent="1" source="Eq3UJyGIVUHMAwNRiF-T-71" edge="1">
          <mxGeometry width="50" height="50" relative="1" as="geometry">
            <mxPoint x="270" y="820" as="sourcePoint" />
            <mxPoint x="720" y="610" as="targetPoint" />
          </mxGeometry>
        </mxCell>
        <mxCell id="Eq3UJyGIVUHMAwNRiF-T-71" value="Appointments" style="whiteSpace=wrap;html=1;aspect=fixed;" parent="1" vertex="1">
          <mxGeometry x="140" y="920" width="80" height="80" as="geometry" />
        </mxCell>
        <mxCell id="Eq3UJyGIVUHMAwNRiF-T-72" value="&lt;ul style=&quot;margin-top: 4px; margin-bottom: 0px; padding-left: calc(var(--ds-md-zoom)*24px); color: rgb(64, 64, 64); font-family: Inter, system-ui, -apple-system, &amp;quot;system-ui&amp;quot;, &amp;quot;Segoe UI&amp;quot;, Roboto, &amp;quot;Noto Sans&amp;quot;, Ubuntu, Cantarell, &amp;quot;Helvetica Neue&amp;quot;, Oxygen, &amp;quot;Open Sans&amp;quot;, sans-serif; font-style: normal; font-variant-ligatures: normal; font-variant-caps: normal; font-weight: 400; letter-spacing: normal; orphans: 2; text-align: left; text-indent: 0px; text-transform: none; widows: 2; word-spacing: 0px; -webkit-text-stroke-width: 0px; white-space: normal; text-decoration-thickness: initial; text-decoration-style: initial; text-decoration-color: initial;&quot;&gt;&lt;li&gt;&lt;p style=&quot;margin-top: 0px; margin-right: 0px; margin-left: 0px; line-height: var(--ds-md-line-height); margin-bottom: 0px !important;&quot;&gt;Appointment details (e.g., user_id, service_type, appointment_date, address, city, state, zip).&lt;/p&gt;&lt;/li&gt;&lt;li style=&quot;margin-top: 4px;&quot;&gt;&lt;p style=&quot;margin-top: 0px; margin-right: 0px; margin-left: 0px; line-height: var(--ds-md-line-height); margin-bottom: 0px !important;&quot;&gt;Notes or special requests from the customer (e.g., specific installation requirements).&lt;/p&gt;&lt;/li&gt;&lt;/ul&gt;" style="text;whiteSpace=wrap;html=1;fontSize=9;" parent="1" vertex="1">
          <mxGeometry x="150" y="800" width="140" height="110" as="geometry" />
        </mxCell>
        <mxCell id="Eq3UJyGIVUHMAwNRiF-T-73" value="" style="endArrow=classic;html=1;rounded=0;entryX=1;entryY=0.5;entryDx=0;entryDy=0;" parent="1" target="Eq3UJyGIVUHMAwNRiF-T-71" edge="1">
          <mxGeometry width="50" height="50" relative="1" as="geometry">
            <mxPoint x="720" y="630" as="sourcePoint" />
            <mxPoint x="770" y="580" as="targetPoint" />
          </mxGeometry>
        </mxCell>
        <mxCell id="Eq3UJyGIVUHMAwNRiF-T-74" value="&lt;ul style=&quot;margin-top: 4px; margin-bottom: 0px; padding-left: calc(var(--ds-md-zoom)*24px); color: rgb(64, 64, 64); font-family: Inter, system-ui, -apple-system, &amp;quot;system-ui&amp;quot;, &amp;quot;Segoe UI&amp;quot;, Roboto, &amp;quot;Noto Sans&amp;quot;, Ubuntu, Cantarell, &amp;quot;Helvetica Neue&amp;quot;, Oxygen, &amp;quot;Open Sans&amp;quot;, sans-serif; font-style: normal; font-variant-ligatures: normal; font-variant-caps: normal; font-weight: 400; letter-spacing: normal; orphans: 2; text-align: left; text-indent: 0px; text-transform: none; widows: 2; word-spacing: 0px; -webkit-text-stroke-width: 0px; white-space: normal; text-decoration-thickness: initial; text-decoration-style: initial; text-decoration-color: initial;&quot;&gt;&lt;li&gt;&lt;p style=&quot;margin-top: 0px; margin-right: 0px; margin-left: 0px; line-height: var(--ds-md-line-height); margin-bottom: 0px !important;&quot;&gt;Status updates (e.g., scheduled, completed, cancelled).&lt;/p&gt;&lt;/li&gt;&lt;li style=&quot;margin-top: 4px;&quot;&gt;&lt;p style=&quot;margin-top: 0px; margin-right: 0px; margin-left: 0px; line-height: var(--ds-md-line-height); margin-bottom: 0px !important;&quot;&gt;Reminders for upcoming appointments.&lt;/p&gt;&lt;/li&gt;&lt;li style=&quot;margin-top: 4px;&quot;&gt;&lt;p style=&quot;margin-top: 0px; margin-right: 0px; margin-left: 0px; line-height: var(--ds-md-line-height); margin-bottom: 0px !important;&quot;&gt;Notifications for rescheduled or delayed appointments.&lt;/p&gt;&lt;/li&gt;&lt;/ul&gt;" style="text;whiteSpace=wrap;html=1;fontSize=9;" parent="1" vertex="1">
          <mxGeometry x="305" y="900" width="120" height="90" as="geometry" />
        </mxCell>
      </root>
    </mxGraphModel>
  </diagram>
</mxfile>
